<svg xmlns="http://www.w3.org/2000/svg" xmlns:xlink="http://www.w3.org/1999/xlink" width="46" height="54" version="1.1" viewBox="227 0 46 54"><desc>Created with Sketch.</desc><defs><rect id="path-1" width="46" height="34" x="0" y="20" rx="8"/><mask id="mask-2" width="46" height="34" x="0" y="0" fill="#fff" maskContentUnits="userSpaceOnUse" maskUnits="objectBoundingBox"><use xlink:href="#path-1"/></mask><path id="path-3" d="M29,16 C29,8.2680135 22.7319865,2 15,2 C7.2680135,2 1,8.2680135 1,16"/><mask id="mask-4" width="28" height="14" x="0" y="0" fill="#fff" maskContentUnits="userSpaceOnUse" maskUnits="objectBoundingBox"><use xlink:href="#path-3"/></mask></defs><g id="locker" fill="none" fill-rule="evenodd" stroke="none" stroke-width="1" transform="translate(227.000000, 0.000000)"><g id="Group-8"><use id="Rectangle-14" stroke="#B5A7DD" stroke-width="6" mask="url(#mask-2)" xlink:href="#path-1"/><g id="Group-7" transform="translate(8.000000, 0.000000)"><use id="Oval-3" stroke="#B5A7DD" stroke-width="6" mask="url(#mask-4)" xlink:href="#path-3"/><rect id="Rectangle-13" width="3" height="6" x="1" y="16" fill="#B5A7DD"/><rect id="Rectangle-13-Copy" width="3" height="6" x="26" y="16" fill="#B5A7DD"/></g><path id="Combined-Shape" fill="#6B4FBB" d="M25,37.4648712 C26.1956027,36.7732524 27,35.4805647 27,34 C27,31.790861 25.209139,30 23,30 C20.790861,30 19,31.790861 19,34 C19,35.4805647 19.8043973,36.7732524 21,37.4648712 L21,41.0026083 C21,42.1041422 21.8954305,43 23,43 C24.1122704,43 25,42.1057373 25,41.0026083 L25,37.4648712 Z"/></g></g></svg>