<svg xmlns="http://www.w3.org/2000/svg" xmlns:xlink="http://www.w3.org/1999/xlink" width="256" height="146" viewBox="0 0 256 146"><title>illustration</title><defs><rect id="a" width="178.714" height="115.389" rx="10"/><mask id="d" width="178.714" height="115.389" x="0" y="0" fill="#fff"><use xlink:href="#a"/></mask><path id="b" d="M8.796 31.515c.395.047.8.072 1.207.072h23.065c5.536 0 10.003-4.475 10.003-9.994v-11.6C43.07 4.476 38.594 0 33.07 0H10.003C4.467 0 0 4.475 0 9.994v11.6c0 1.248.23 2.444.65 3.547H0v7.414c0 4.094 2.394 5.113 5.342 2.28l3.454-3.32z"/><mask id="e" width="43.071" height="36.437" x="0" y="0" fill="#fff"><use xlink:href="#b"/></mask><path id="c" d="M8.796 31.515c.395.047.8.072 1.207.072h23.065c5.536 0 10.003-4.475 10.003-9.994v-11.6C43.07 4.476 38.594 0 33.07 0H10.003C4.467 0 0 4.475 0 9.994v11.6c0 1.248.23 2.444.65 3.547H0v7.414c0 4.094 2.394 5.113 5.342 2.28l3.454-3.32z"/><mask id="f" width="43.071" height="36.437" x="0" y="0" fill="#fff"><use xlink:href="#c"/></mask></defs><g fill="none" fill-rule="evenodd"><g fill="#F9F9F9" transform="translate(0 3.868)"><rect width="77.143" height="14.182" x="19.286" rx="7.091"/><rect width="84.857" height="14.182" y="28.364" rx="7.091"/><rect width="122.143" height="14.182" x="133.714" y="42.546" rx="7.091"/><rect width="101.571" height="14.182" x="82.929" y="126.992" rx="7.091"/><rect width="101.571" height="14.182" x="42.429" y="99.273" rx="7.091"/><rect width="225" height="14.182" x="19.929" y="70.909" rx="7.091"/><path d="M98.37 14.182H13.488h13.81a7.098 7.098 0 0 1 7.094 7.09 7.09 7.09 0 0 1-7.094 7.092h-13.81 84.88-23.452a7.098 7.098 0 0 1-7.095-7.09 7.09 7.09 0 0 1 7.096-7.092h23.452zm162 42.545h-75.238 23.452a7.098 7.098 0 0 1 7.095 7.09 7.09 7.09 0 0 1-7.096 7.092h-23.452 75.237-23.453a7.098 7.098 0 0 1-7.095-7.09 7.09 7.09 0 0 1 7.095-7.093h23.452zM103.512 85.09H28.275h23.452a7.098 7.098 0 0 1 7.095 7.092 7.09 7.09 0 0 1-7.095 7.09H28.275h75.237H80.06a7.098 7.098 0 0 1-7.095-7.09 7.09 7.09 0 0 1 7.095-7.09h23.452zm48.215 28.365H76.49 90.3a7.098 7.098 0 0 1 7.093 7.09 7.09 7.09 0 0 1-7.094 7.092H76.49h75.237-33.096a7.098 7.098 0 0 1-7.094-7.09 7.09 7.09 0 0 1 7.095-7.092h33.097z"/></g><g transform="translate(38.57 12.248)"><use fill="#FFF" stroke="#EEE" stroke-width="8" mask="url(#d)" xlink:href="#a"/><path fill="#EEE" d="M2.57 18.694h174.215v2.58H2.57z"/><g transform="translate(21.857 38.678)"><rect width="3.857" height="1.289" y=".645" fill="#B5A7DD" rx=".645"/><rect width="9.643" height="2.579" x="9.643" fill="#EEE" rx="1.289"/><rect width="9.643" height="2.579" x="46.286" fill="#EEE" rx="1.289"/><rect width="9.643" height="2.579" x="25.071" y="14.182" fill="#EEE" rx="1.289"/><rect width="9.643" height="2.579" x="34.071" y="7.091" fill="#FC6D26" rx="1.289"/><rect width="12.857" height="2.579" x="30.857" fill="#FC6D26" opacity=".5" rx="1.289"/><rect width="12.857" height="2.579" x="9.643" y="14.182" fill="#EEE" rx="1.289"/><rect width="12.857" height="2.579" x="18.643" y="7.091" fill="#EEE" rx="1.289"/><rect width="6.429" height="2.579" x="21.857" fill="#FC6D26" rx="1.289"/><rect width="6.429" height="2.579" x="9.643" y="7.091" fill="#EEE" rx="1.289"/><rect width="3.857" height="1.289" y="7.736" fill="#B5A7DD" rx=".645"/><rect width="3.857" height="1.289" y="14.826" fill="#B5A7DD" rx=".645"/></g><g transform="translate(21.857 59.95)"><rect width="3.857" height="1.289" y=".645" fill="#B5A7DD" rx=".645"/><rect width="9.643" height="2.579" x="9.643" fill="#FC6D26" rx="1.289"/><rect width="9.643" height="2.579" x="46.286" fill="#EEE" rx="1.289"/><rect width="9.643" height="2.579" x="25.071" y="14.182" fill="#FC6D26" opacity=".5" rx="1.289"/><rect width="9.643" height="2.579" x="34.071" y="7.091" fill="#EEE" rx="1.289"/><rect width="12.857" height="2.579" x="30.857" fill="#FC6D26" rx="1.289"/><rect width="12.857" height="2.579" x="9.643" y="14.182" fill="#FC6D26" rx="1.289"/><rect width="12.857" height="2.579" x="18.643" y="7.091" fill="#EEE" rx="1.289"/><rect width="6.429" height="2.579" x="21.857" fill="#FC6D26" opacity=".5" rx="1.289"/><rect width="6.429" height="2.579" x="9.643" y="7.091" fill="#EEE" rx="1.289"/><rect width="3.857" height="1.289" y="7.736" fill="#B5A7DD" rx=".645"/><rect width="3.857" height="1.289" y="14.826" fill="#B5A7DD" rx=".645"/></g><g transform="translate(21.857 81.223)"><rect width="3.857" height="1.289" y=".645" fill="#B5A7DD" rx=".645"/><rect width="9.643" height="2.579" x="9.643" fill="#EEE" rx="1.289"/><rect width="9.643" height="2.579" x="46.286" fill="#EEE" rx="1.289"/><rect width="9.643" height="2.579" x="25.071" y="14.182" fill="#EEE" rx="1.289"/><rect width="9.643" height="2.579" x="34.071" y="7.091" fill="#EEE" rx="1.289"/><rect width="12.857" height="2.579" x="30.857" fill="#FC6D26" rx="1.289"/><rect width="12.857" height="2.579" x="9.643" y="14.182" fill="#EEE" rx="1.289"/><rect width="12.857" height="2.579" x="18.643" y="7.091" fill="#EEE" rx="1.289"/><rect width="6.429" height="2.579" x="21.857" fill="#FC6D26" opacity=".5" rx="1.289"/><rect width="6.429" height="2.579" x="9.643" y="7.091" fill="#EEE" rx="1.289"/><rect width="3.857" height="1.289" y="7.736" fill="#B5A7DD" rx=".645"/><rect width="3.857" height="1.289" y="14.826" fill="#B5A7DD" rx=".645"/></g><g transform="translate(100.93 38.033)"><rect width="3.857" height="1.289" y=".645" fill="#FDE5D8" rx=".645"/><rect width="9.643" height="2.579" x="9.643" fill="#EEE" rx="1.289"/><rect width="9.643" height="2.579" x="46.286" fill="#EEE" rx="1.289"/><rect width="9.643" height="2.579" x="25.071" y="14.182" fill="#6B4FBB" opacity=".5" rx="1.289"/><rect width="9.643" height="2.579" x="34.071" y="7.091" fill="#6B4FBB" rx="1.289"/><rect width="12.857" height="2.579" x="30.857" fill="#6B4FBB" opacity=".5" rx="1.289"/><rect width="12.857" height="2.579" x="9.643" y="14.182" fill="#6B4FBB" rx="1.289"/><rect width="12.857" height="2.579" x="18.643" y="7.091" fill="#EEE" rx="1.289"/><rect width="6.429" height="2.579" x="21.857" fill="#6B4FBB" rx="1.289"/><rect width="6.429" height="2.579" x="9.643" y="7.091" fill="#EEE" rx="1.289"/><rect width="3.857" height="1.289" y="7.736" fill="#FDE5D8" rx=".645"/><rect width="3.857" height="1.289" y="14.826" fill="#FDE5D8" rx=".645"/><rect width="3.857" height="1.289" y="21.917" fill="#FDE5D8" rx=".645"/><rect width="9.643" height="2.579" x="9.643" y="21.273" fill="#EEE" rx="1.289"/><rect width="9.643" height="2.579" x="37.286" y="14.182" fill="#EEE" rx="1.289"/><rect width="9.643" height="2.579" x="25.071" y="35.455" fill="#6B4FBB" opacity=".5" rx="1.289"/><rect width="9.643" height="2.579" x="18.643" y="28.364" fill="#6B4FBB" rx="1.289"/><rect width="12.857" height="2.579" x="30.857" y="21.273" fill="#6B4FBB" rx="1.289"/><rect width="12.857" height="2.579" x="9.643" y="35.455" fill="#EEE" rx="1.289"/><rect width="6.429" height="2.579" x="21.857" y="21.273" fill="#EEE" rx="1.289"/><rect width="6.429" height="2.579" x="9.643" y="28.364" fill="#EEE" rx="1.289"/><rect width="6.429" height="2.579" x="30.857" y="28.364" fill="#EEE" rx="1.289"/><rect width="6.429" height="2.579" x="39.857" y="28.364" fill="#EEE" rx="1.289"/><rect width="6.429" height="2.579" x="49.5" y="14.182" fill="#EEE" rx="1.289"/><rect width="3.857" height="1.289" y="29.008" fill="#FDE5D8" rx=".645"/><rect width="3.857" height="1.289" y="36.099" fill="#FDE5D8" rx=".645"/><rect width="3.857" height="1.289" y="43.19" fill="#FDE5D8" rx=".645"/><rect width="9.643" height="2.579" x="9.643" y="42.546" fill="#6B4FBB" rx="1.289"/><rect width="9.643" height="2.579" x="25.071" y="56.727" fill="#EEE" rx="1.289"/><rect width="9.643" height="2.579" x="34.071" y="49.636" fill="#6B4FBB" opacity=".5" rx="1.289"/><rect width="12.857" height="2.579" x="9.643" y="56.727" fill="#EEE" rx="1.289"/><rect width="12.857" height="2.579" x="18.643" y="49.636" fill="#6B4FBB" rx="1.289"/><rect width="6.429" height="2.579" x="21.857" y="42.546" fill="#EEE" rx="1.289"/><rect width="6.429" height="2.579" x="46.286" y="49.636" fill="#EEE" rx="1.289"/><rect width="6.429" height="2.579" x="9.643" y="49.636" fill="#EEE" rx="1.289"/><rect width="3.857" height="1.289" y="50.281" fill="#FDE5D8" rx=".645"/><rect width="3.857" height="1.289" y="57.372" fill="#FDE5D8" rx=".645"/></g></g><g transform="translate(196.07)"><use fill="#FFF" stroke="#FDE5D8" stroke-width="8" mask="url(#e)" xlink:href="#b"/><rect width="18.643" height="1.934" x="9" y="9.025" fill="#FDB692" rx=".967"/><rect width="25.071" height="1.934" x="9" y="14.826" fill="#FDB692" rx=".967"/><rect width="18.643" height="1.934" x="9" y="20.628" fill="#FDB692" rx=".967"/></g><g transform="translate(189 41.256)"><ellipse cx="10.286" cy="9.669" fill="#FFF7F4" stroke="#FC6D26" stroke-width="3" rx="9.643" ry="9.669"/><path stroke="#FC6D26" stroke-width="2" d="M.023 9.002a8.352 8.352 0 0 0 7.94-4.308M9 .644c0-.21-.008-.416-.023-.62"/><path stroke="#FC6D26" stroke-width="2" d="M5.045 2.008A10.266 10.266 0 0 0 13.5 6.446c2.112 0 4.076-.638 5.71-1.733"/><ellipse cx="6.75" cy="11.281" fill="#FC6D26" rx=".964" ry=".967"/><ellipse cx="13.821" cy="11.281" fill="#FC6D26" rx=".964" ry=".967"/></g><g transform="translate(46.93 96.05)"><ellipse cx="9.643" cy="10.314" fill="#F4F1FA" stroke="#6B4FBB" stroke-width="3" rx="9.643" ry="9.669"/><path fill="#6B4FBB" d="M12.86 4.51h-.005L11.25 2.58 9.645 4.51H9.64L8.036 2.58 6.43 4.51h-.002L4.82 2.58 3.215 4.512h-1.75A9.646 9.646 0 0 1 9.642 0c3.447 0 6.47 1.8 8.176 4.508h-1.75l-1.605-1.93L12.86 4.51z"/><ellipse cx="6.107" cy="11.281" fill="#6B4FBB" rx=".964" ry=".967"/><ellipse cx="13.179" cy="11.281" fill="#6B4FBB" rx=".964" ry=".967"/></g><g transform="matrix(-1 0 0 1 56.57 54.794)"><use fill="#FFF" stroke="#E2DCF2" stroke-width="8" mask="url(#f)" xlink:href="#c"/><rect width="18.643" height="1.934" x="15.429" y="9.025" fill="#6B4FBB" opacity=".5" rx=".967"/><rect width="12.214" height="1.934" x="21.857" y="14.826" fill="#6B4FBB" opacity=".5" rx=".967"/><rect width="12.214" height="1.934" x="21.857" y="20.628" fill="#6B4FBB" opacity=".5" rx=".967"/></g></g></svg>