<svg xmlns="http://www.w3.org/2000/svg" xmlns:xlink="http://www.w3.org/1999/xlink" id="mscgen_js-svg-__svg" width="976" height="310" class="mscgen_js-svg-__svg" version="1.1" viewBox="0 0 976 310"><desc># Generated by mscgen_js - https://sverweij.github.io/mscgen_js msc { # options hscale=&quot;1.5&quot;; # entities c [label=&quot;Client&quot;, textbgcolor=&quot;lime&quot;], rails [label=&quot;Rails&quot;, textbgcolor=&quot;cyan&quot;], etag [label=&quot;EtagCaching&quot;, textbgcolor=&quot;orange&quot;], redis [label=&quot;Redis&quot;, textbgcolor=&quot;white&quot;]; # arcs c =&gt; rails [label=&quot;GET /projects/5/pipelines&quot;]; rails =&gt; etag [label=&quot;GET /projects/5/pipelines&quot;]; etag =&gt; redis [label=&quot;read(key = &apos;GET &lt;Etag&gt;&apos;)&quot;]; redis =&gt; etag [label=&quot;cache hit&quot;, linecolor=&quot;green&quot;, textcolor=&quot;green&quot;]; |||; etag =&gt; c [label=&quot;304 Not Modified&quot;, linecolor=&quot;blue&quot;, textcolor=&quot;blue&quot;]; }</desc><defs><style type="text/css">svg.mscgen_js-svg-__svg{font-family:Helvetica,sans-serif;font-size:12px;font-weight:400;font-style:normal;text-decoration:none;background-color:#fff;stroke:#000;stroke-width:2;color:#000}.mscgen_js-svg-__svg rect{fill:none;color:#000;stroke:#000}.mscgen_js-svg-__svg .bglayer,.mscgen_js-svg-__svg .label-text-background{fill:#fff;stroke:#fff;stroke-width:0}.mscgen_js-svg-__svg line{stroke:#000}.mscgen_js-svg-__svg text{color:inherit;stroke:none;text-anchor:middle}.mscgen_js-svg-__svg text.entity-text{text-decoration:underline}.mscgen_js-svg-__svg .arrow-marker{overflow:visible}.mscgen_js-svg-__svg .arrow-style{stroke-width:1}.mscgen_js-svg-__svg .arcrow{stroke-linecap:butt}.mscgen_js-svg-__svg .entity{fill:#fff;stroke-linejoin:round}</style><marker id="mscgen_js-svg-__svgmethod-black" class="arrow-marker" markerHeight="10" markerUnits="strokeWidth" markerWidth="10" orient="auto" refX="9" refY="3" viewBox="0 0 10 10"><polygon fill="#000" stroke="#000" points="1 1 9 3 1 5" class="arrow-style"/></marker><marker id="mscgen_js-svg-__svgmethod-l-black" class="arrow-marker" markerHeight="10" markerUnits="strokeWidth" markerWidth="10" orient="auto" refX="9" refY="3" viewBox="0 0 10 10"><polygon fill="#000" stroke="#000" points="17 1 9 3 17 5" class="arrow-style"/></marker><marker id="mscgen_js-svg-__svgmethod-blue" class="arrow-marker" markerHeight="10" markerUnits="strokeWidth" markerWidth="10" orient="auto" refX="9" refY="3" viewBox="0 0 10 10"><polygon fill="#00f" stroke="#00f" points="1 1 9 3 1 5" class="arrow-style"/></marker><marker id="mscgen_js-svg-__svgmethod-l-blue" class="arrow-marker" markerHeight="10" markerUnits="strokeWidth" markerWidth="10" orient="auto" refX="9" refY="3" viewBox="0 0 10 10"><polygon fill="#00f" stroke="#00f" points="17 1 9 3 17 5" class="arrow-style"/></marker><marker id="mscgen_js-svg-__svgmethod-green" class="arrow-marker" markerHeight="10" markerUnits="strokeWidth" markerWidth="10" orient="auto" refX="9" refY="3" viewBox="0 0 10 10"><polygon fill="green" stroke="green" points="1 1 9 3 1 5" class="arrow-style"/></marker><marker id="mscgen_js-svg-__svgmethod-l-green" class="arrow-marker" markerHeight="10" markerUnits="strokeWidth" markerWidth="10" orient="auto" refX="9" refY="3" viewBox="0 0 10 10"><polygon fill="green" stroke="green" points="17 1 9 3 17 5" class="arrow-style"/></marker></defs><g id="mscgen_js-svg-__svg__body" transform="translate(53,3) scale(1,1)"><g id="mscgen_js-svg-__svg__background"><rect width="976" height="310" x="-53" y="-3" class="bglayer"/></g><g id="mscgen_js-svg-__svg__lifelinelayer"><line x1="75" x2="75" y1="38" y2="76" class="arcrow"/><line x1="315" x2="315" y1="38" y2="76" class="arcrow"/><line x1="555" x2="555" y1="38" y2="76" class="arcrow"/><line x1="795" x2="795" y1="38" y2="76" class="arcrow"/><line x1="75" x2="75" y1="76" y2="114" class="arcrow"/><line x1="315" x2="315" y1="76" y2="114" class="arcrow"/><line x1="555" x2="555" y1="76" y2="114" class="arcrow"/><line x1="795" x2="795" y1="76" y2="114" class="arcrow"/><line x1="75" x2="75" y1="114" y2="152" class="arcrow"/><line x1="315" x2="315" y1="114" y2="152" class="arcrow"/><line x1="555" x2="555" y1="114" y2="152" class="arcrow"/><line x1="795" x2="795" y1="114" y2="152" class="arcrow"/><line x1="75" x2="75" y1="152" y2="190" class="arcrow"/><line x1="315" x2="315" y1="152" y2="190" class="arcrow"/><line x1="555" x2="555" y1="152" y2="190" class="arcrow"/><line x1="795" x2="795" y1="152" y2="190" class="arcrow"/><line x1="75" x2="75" y1="190" y2="228" class="arcrow"/><line x1="315" x2="315" y1="190" y2="228" class="arcrow"/><line x1="555" x2="555" y1="190" y2="228" class="arcrow"/><line x1="795" x2="795" y1="190" y2="228" class="arcrow"/><line x1="75" x2="75" y1="228" y2="266" class="arcrow"/><line x1="315" x2="315" y1="228" y2="266" class="arcrow"/><line x1="555" x2="555" y1="228" y2="266" class="arcrow"/><line x1="795" x2="795" y1="228" y2="266" class="arcrow"/><line x1="75" x2="75" y1="266" y2="304" class="arcrow"/><line x1="315" x2="315" y1="266" y2="304" class="arcrow"/><line x1="555" x2="555" y1="266" y2="304" class="arcrow"/><line x1="795" x2="795" y1="266" y2="304" class="arcrow"/></g><g id="mscgen_js-svg-__svg__sequencelayer"><g id="mscgen_js-svg-__svgentities"><g><rect width="150" height="38" class="entity" style="fill:#0f0"/><g><text x="75" y="22.5" class="entity-text"><tspan>Client</tspan></text></g></g><g><rect width="150" height="38" x="240" class="entity" style="fill:#0ff"/><g><text x="315" y="22.5" class="entity-text"><tspan>Rails</tspan></text></g></g><g><rect width="150" height="38" x="480" class="entity" style="fill:orange"/><g><text x="555" y="22.5" class="entity-text"><tspan>EtagCaching</tspan></text></g></g><g><rect width="150" height="38" x="720" class="entity" style="fill:#fff"/><g><text x="795" y="22.5" class="entity-text"><tspan>Redis</tspan></text></g></g></g><g><line x1="75" x2="315" y1="95" y2="95" marker-end="url(#mscgen_js-svg-__svgmethod-black)" class="arc directional method" style="stroke:#000"/><g><rect width="134.06" height="14" x="127.97" y="79.5" class="label-text-background"/><text x="195" y="90.5" class="directional-text method-text"><tspan>GET /projects/5/pipelines</tspan></text></g></g><g><line x1="315" x2="555" y1="133" y2="133" marker-end="url(#mscgen_js-svg-__svgmethod-black)" class="arc directional method" style="stroke:#000"/><g><rect width="134.06" height="14" x="367.97" y="117.5" class="label-text-background"/><text x="435" y="128.5" class="directional-text method-text"><tspan>GET /projects/5/pipelines</tspan></text></g></g><g><line x1="555" x2="795" y1="171" y2="171" marker-end="url(#mscgen_js-svg-__svgmethod-black)" class="arc directional method" style="stroke:#000"/><g><rect width="135.64" height="14" x="607.17" y="155.5" class="label-text-background"/><text x="675" y="166.5" class="directional-text method-text"><tspan>read(key = &apos;GET &lt;Etag&gt;&apos;)</tspan></text></g></g><g><line x1="795" x2="555" y1="209" y2="209" marker-end="url(#mscgen_js-svg-__svgmethod-green)" class="arc directional method" style="stroke:green"/><g><rect width="48.02" height="14" x="650.98" y="193.5" class="label-text-background"/><text x="675" y="204.5" class="directional-text method-text" style="fill:green"><tspan>cache hit</tspan></text></g></g><g><line x1="555" x2="75" y1="285" y2="285" marker-end="url(#mscgen_js-svg-__svgmethod-blue)" class="arc directional method" style="stroke:#00f"/><g><rect width="90.72" height="14" x="269.63" y="269.5" class="label-text-background"/><text x="315" y="280.5" class="directional-text method-text" style="fill:#00f"><tspan>304 Not Modified</tspan></text></g></g></g></g></svg>